<?xml-stylesheet type="text/css" href="hexagon-styles.css" ?>
<svg width="120" height="100" viewBox="0 0 120 100" fill="none" xmlns="http://www.w3.org/2000/svg">
    <g id="hexagon">
        <rect width="120" height="100" fill="white" />
        <g id="triangles">
            <path id="vector-1" d="M25 35L43.5722 46.1843C44.2189 46.5738 44.2174 47.512 43.5695 47.8993L25 59V35Z" fill="#43C4ED" fill-opacity="0.56" />
            <path id="vector-4" d="M71.5 58.5L52.9278 47.3157C52.2811 46.9262 52.2826 45.988 52.9305 45.6007L71.5 34.5V58.5Z" fill="#43C4ED" fill-opacity="0.56" />
            <path id="vector-2" d="M46 21V42.2723C46 43.0412 45.1686 43.5224 44.5019 43.1394L26 32.5114L46 21Z" fill="#43C4ED" fill-opacity="0.56" />
            <path id="vector-5" d="M26.0847 61.2427L44.5767 50.1316C45.2357 49.7356 46.0764 50.2004 46.0915 50.9691L46.5164 72.6036L26.0847 61.2427Z" fill="#43C4ED" fill-opacity="0.56" />
            <path id="vector-3" d="M69.4 32.4002L50.9017 43.129C50.235 43.5157 49.4 43.0347 49.4 42.264L49.4 21L69.4 32.4002Z" fill="#43C4ED" fill-opacity="0.56" />
            <path id="vector-6" d="M48.8482 72.061L48.7871 50.3649C48.7849 49.5939 49.6193 49.1105 50.2871 49.4961L69 60.3L48.8482 72.061Z" fill="#43C4ED" fill-opacity="0.56" />
        <!-- </g> -->
        <!-- <g id="dots"> -->
            <circle id="ellipse-3" cx="24" cy="33" r="5" fill="#635BFF" fill-opacity="0.75" />
            <path id="ellipse-4" d="M53 19.5C53 22.2614 50.7614 24.5 48 24.5C45.2386 24.5 43 22.2614 43 19.5C43 16.7386 45.2386 14.5 48 14.5C50.7614 14.5 53 16.7386 53 19.5Z" fill="#635BFF" fill-opacity="0.75" />
            <path id="ellipse-5" d="M77 32.9C77 35.6614 74.7614 37.9 72 37.9C69.2386 37.9 67 35.6614 67 32.9C67 30.1386 69.2386 27.9 72 27.9C74.7614 27.9 77 30.1386 77 32.9Z" fill="#635BFF" fill-opacity="0.75" />
            <path id="ellipse-6" d="M77.5 61C77.5 63.7614 75.2614 66 72.5 66C69.7386 66 67.5 63.7614 67.5 61C67.5 58.2386 69.7386 56 72.5 56C75.2614 56 77.5 58.2386 77.5 61Z" fill="#635BFF" fill-opacity="0.75" />
            <circle id="ellipse -" cx="48" cy="74" r="5" fill="#635BFF" fill-opacity="0.75" />
            <path id="ellipse-8" d="M28.5 60.6689C28.5 63.4303 26.2614 65.6689 23.5 65.6689C20.7386 65.6689 18.5 63.4303 18.5 60.6689C18.5 57.9075 20.7386 55.6689 23.5 55.6689C26.2614 55.6689 28.5 57.9075 28.5 60.6689Z" fill="#635BFF" fill-opacity="0.75" />
        </g>
    </g>
</svg>